<svg width="1146" height="216" viewBox="0 0 1146 216" fill="none" xmlns="http://www.w3.org/2000/svg">
<rect width="100" height="100" fill="#104D8E"/>
<rect x="116" width="100" height="100" fill="#3594D0"/>
<rect y="116" width="100" height="100" fill="#58C9ED"/>
<rect x="116" y="116" width="100" height="100" fill="#1862A0"/>
<path d="M282.182 53.9091H302.818L330.455 121.364H331.545L359.182 53.9091H379.818V147H363.636V83.0455H362.773L337.045 146.727H324.955L299.227 82.9091H298.364V147H282.182V53.9091ZM417.545 148.409C413.121 148.409 409.136 147.621 405.591 146.045C402.076 144.439 399.288 142.076 397.227 138.955C395.197 135.833 394.182 131.985 394.182 127.409C394.182 123.47 394.909 120.212 396.364 117.636C397.818 115.061 399.803 113 402.318 111.455C404.833 109.909 407.667 108.742 410.818 107.955C414 107.136 417.288 106.545 420.682 106.182C424.773 105.758 428.091 105.379 430.636 105.045C433.182 104.682 435.03 104.136 436.182 103.409C437.364 102.652 437.955 101.485 437.955 99.9091V99.6364C437.955 96.2121 436.939 93.5606 434.909 91.6818C432.879 89.803 429.955 88.8636 426.136 88.8636C422.106 88.8636 418.909 89.7424 416.545 91.5C414.212 93.2576 412.636 95.3333 411.818 97.7273L396.455 95.5455C397.667 91.303 399.667 87.7576 402.455 84.9091C405.242 82.0303 408.652 79.8788 412.682 78.4545C416.712 77 421.167 76.2727 426.045 76.2727C429.409 76.2727 432.758 76.6667 436.091 77.4545C439.424 78.2424 442.47 79.5455 445.227 81.3636C447.985 83.1515 450.197 85.5909 451.864 88.6818C453.561 91.7727 454.409 95.6364 454.409 100.273V147H438.591V137.409H438.045C437.045 139.348 435.636 141.167 433.818 142.864C432.03 144.53 429.773 145.879 427.045 146.909C424.348 147.909 421.182 148.409 417.545 148.409ZM421.818 136.318C425.121 136.318 427.985 135.667 430.409 134.364C432.833 133.03 434.697 131.273 436 129.091C437.333 126.909 438 124.53 438 121.955V113.727C437.485 114.152 436.606 114.545 435.364 114.909C434.152 115.273 432.788 115.591 431.273 115.864C429.758 116.136 428.258 116.379 426.773 116.591C425.288 116.803 424 116.985 422.909 117.136C420.455 117.47 418.258 118.015 416.318 118.773C414.379 119.53 412.848 120.591 411.727 121.955C410.606 123.288 410.045 125.015 410.045 127.136C410.045 130.167 411.152 132.455 413.364 134C415.576 135.545 418.394 136.318 421.818 136.318ZM470.955 147V77.1818H486.909V88.8182H487.636C488.909 84.7879 491.091 81.6818 494.182 79.5C497.303 77.2879 500.864 76.1818 504.864 76.1818C505.773 76.1818 506.788 76.2273 507.909 76.3182C509.061 76.3788 510.015 76.4848 510.773 76.6364V91.7727C510.076 91.5303 508.97 91.3182 507.455 91.1364C505.97 90.9242 504.53 90.8182 503.136 90.8182C500.136 90.8182 497.439 91.4697 495.045 92.7727C492.682 94.0455 490.818 95.8182 489.455 98.0909C488.091 100.364 487.409 102.985 487.409 105.955V147H470.955ZM536.705 125.091L536.659 105.227H539.295L564.386 77.1818H583.614L552.75 111.545H549.341L536.705 125.091ZM521.705 147V53.9091H538.159V147H521.705ZM565.523 147L542.795 115.227L553.886 103.636L585.205 147H565.523ZM622.614 148.364C615.614 148.364 609.568 146.909 604.477 144C599.417 141.061 595.523 136.909 592.795 131.545C590.068 126.152 588.705 119.803 588.705 112.5C588.705 105.318 590.068 99.0152 592.795 93.5909C595.553 88.1364 599.402 83.8939 604.341 80.8636C609.28 77.803 615.083 76.2727 621.75 76.2727C626.053 76.2727 630.114 76.9697 633.932 78.3636C637.78 79.7273 641.174 81.8485 644.114 84.7273C647.083 87.6061 649.417 91.2727 651.114 95.7273C652.811 100.152 653.659 105.424 653.659 111.545V116.591H596.432V105.5H637.886C637.856 102.348 637.174 99.5455 635.841 97.0909C634.508 94.6061 632.644 92.6515 630.25 91.2273C627.886 89.803 625.129 89.0909 621.977 89.0909C618.614 89.0909 615.659 89.9091 613.114 91.5455C610.568 93.1515 608.583 95.2727 607.159 97.9091C605.765 100.515 605.053 103.379 605.023 106.5V116.182C605.023 120.242 605.765 123.727 607.25 126.636C608.735 129.515 610.811 131.727 613.477 133.273C616.144 134.788 619.265 135.545 622.841 135.545C625.235 135.545 627.402 135.212 629.341 134.545C631.28 133.848 632.962 132.833 634.386 131.5C635.811 130.167 636.886 128.515 637.614 126.545L652.977 128.273C652.008 132.333 650.159 135.879 647.432 138.909C644.735 141.909 641.28 144.242 637.068 145.909C632.856 147.545 628.038 148.364 622.614 148.364ZM702.443 77.1818V89.9091H662.307V77.1818H702.443ZM672.216 60.4545H688.67V126C688.67 128.212 689.004 129.909 689.67 131.091C690.367 132.242 691.277 133.03 692.398 133.455C693.519 133.879 694.761 134.091 696.125 134.091C697.155 134.091 698.095 134.015 698.943 133.864C699.822 133.712 700.489 133.576 700.943 133.455L703.716 146.318C702.837 146.621 701.58 146.955 699.943 147.318C698.337 147.682 696.367 147.894 694.034 147.955C689.913 148.076 686.201 147.455 682.898 146.091C679.595 144.697 676.973 142.545 675.034 139.636C673.125 136.727 672.186 133.091 672.216 128.727V60.4545Z" fill="#104D8E"/>
<path d="M767.523 79.5C767.098 75.5303 765.311 72.4394 762.159 70.2273C759.038 68.0151 754.977 66.9091 749.977 66.9091C746.462 66.9091 743.447 67.4394 740.932 68.5C738.417 69.5606 736.492 71 735.159 72.8182C733.826 74.6364 733.144 76.7121 733.114 79.0455C733.114 80.9848 733.553 82.6667 734.432 84.0909C735.341 85.5152 736.568 86.7273 738.114 87.7273C739.659 88.697 741.371 89.5151 743.25 90.1818C745.129 90.8485 747.023 91.4091 748.932 91.8636L757.659 94.0455C761.174 94.8636 764.553 95.9697 767.795 97.3636C771.068 98.7576 773.992 100.515 776.568 102.636C779.174 104.758 781.235 107.318 782.75 110.318C784.265 113.318 785.023 116.833 785.023 120.864C785.023 126.318 783.629 131.121 780.841 135.273C778.053 139.394 774.023 142.621 768.75 144.955C763.508 147.258 757.159 148.409 749.705 148.409C742.462 148.409 736.174 147.288 730.841 145.045C725.538 142.803 721.386 139.53 718.386 135.227C715.417 130.924 713.811 125.682 713.568 119.5H730.159C730.402 122.742 731.402 125.439 733.159 127.591C734.917 129.742 737.205 131.348 740.023 132.409C742.871 133.47 746.053 134 749.568 134C753.235 134 756.447 133.455 759.205 132.364C761.992 131.242 764.174 129.697 765.75 127.727C767.326 125.727 768.129 123.394 768.159 120.727C768.129 118.303 767.417 116.303 766.023 114.727C764.629 113.121 762.674 111.788 760.159 110.727C757.674 109.636 754.765 108.667 751.432 107.818L740.841 105.091C733.174 103.121 727.114 100.136 722.659 96.1364C718.235 92.1061 716.023 86.7576 716.023 80.0909C716.023 74.6061 717.508 69.803 720.477 65.6818C723.477 61.5606 727.553 58.3636 732.705 56.0909C737.856 53.7879 743.689 52.6364 750.205 52.6364C756.811 52.6364 762.598 53.7879 767.568 56.0909C772.568 58.3636 776.492 61.5303 779.341 65.5909C782.189 69.6212 783.659 74.2576 783.75 79.5H767.523ZM845.92 173.182V136H845.239C844.39 137.697 843.163 139.5 841.557 141.409C839.951 143.288 837.83 144.894 835.193 146.227C832.557 147.561 829.239 148.227 825.239 148.227C819.754 148.227 814.845 146.818 810.511 144C806.178 141.182 802.754 137.091 800.239 131.727C797.723 126.364 796.466 119.848 796.466 112.182C796.466 104.424 797.739 97.8788 800.284 92.5455C802.86 87.1818 806.33 83.1364 810.693 80.4091C815.057 77.6515 819.92 76.2727 825.284 76.2727C829.375 76.2727 832.739 76.9697 835.375 78.3636C838.011 79.7273 840.102 81.3788 841.648 83.3182C843.193 85.2273 844.39 87.0303 845.239 88.7273H846.239V77.1818H862.42V173.182H845.92ZM829.83 134.727C833.314 134.727 836.284 133.788 838.739 131.909C841.193 130 843.057 127.348 844.33 123.955C845.602 120.561 846.239 116.606 846.239 112.091C846.239 107.576 845.602 103.652 844.33 100.318C843.087 96.9848 841.239 94.3939 838.784 92.5455C836.36 90.697 833.375 89.7727 829.83 89.7727C826.163 89.7727 823.102 90.7273 820.648 92.6364C818.193 94.5455 816.345 97.1818 815.102 100.545C813.86 103.909 813.239 107.758 813.239 112.091C813.239 116.455 813.86 120.348 815.102 123.773C816.375 127.167 818.239 129.848 820.693 131.818C823.178 133.758 826.223 134.727 829.83 134.727ZM923.83 117.636V77.1818H940.284V147H924.33V134.591H923.602C922.027 138.5 919.436 141.697 915.83 144.182C912.254 146.667 907.845 147.909 902.602 147.909C898.027 147.909 893.981 146.894 890.466 144.864C886.981 142.803 884.254 139.818 882.284 135.909C880.314 131.97 879.33 127.212 879.33 121.636V77.1818H895.784V119.091C895.784 123.515 896.996 127.03 899.42 129.636C901.845 132.242 905.027 133.545 908.966 133.545C911.39 133.545 913.739 132.955 916.011 131.773C918.284 130.591 920.148 128.833 921.602 126.5C923.087 124.136 923.83 121.182 923.83 117.636ZM977.295 148.409C972.871 148.409 968.886 147.621 965.341 146.045C961.826 144.439 959.038 142.076 956.977 138.955C954.947 135.833 953.932 131.985 953.932 127.409C953.932 123.47 954.659 120.212 956.114 117.636C957.568 115.061 959.553 113 962.068 111.455C964.583 109.909 967.417 108.742 970.568 107.955C973.75 107.136 977.038 106.545 980.432 106.182C984.523 105.758 987.841 105.379 990.386 105.045C992.932 104.682 994.78 104.136 995.932 103.409C997.114 102.652 997.705 101.485 997.705 99.9091V99.6364C997.705 96.2121 996.689 93.5606 994.659 91.6818C992.629 89.803 989.705 88.8636 985.886 88.8636C981.856 88.8636 978.659 89.7424 976.295 91.5C973.962 93.2576 972.386 95.3333 971.568 97.7273L956.205 95.5455C957.417 91.303 959.417 87.7576 962.205 84.9091C964.992 82.0303 968.402 79.8788 972.432 78.4545C976.462 77 980.917 76.2727 985.795 76.2727C989.159 76.2727 992.508 76.6667 995.841 77.4545C999.174 78.2424 1002.22 79.5455 1004.98 81.3636C1007.73 83.1515 1009.95 85.5909 1011.61 88.6818C1013.31 91.7727 1014.16 95.6364 1014.16 100.273V147H998.341V137.409H997.795C996.795 139.348 995.386 141.167 993.568 142.864C991.78 144.53 989.523 145.879 986.795 146.909C984.098 147.909 980.932 148.409 977.295 148.409ZM981.568 136.318C984.871 136.318 987.735 135.667 990.159 134.364C992.583 133.03 994.447 131.273 995.75 129.091C997.083 126.909 997.75 124.53 997.75 121.955V113.727C997.235 114.152 996.356 114.545 995.114 114.909C993.902 115.273 992.538 115.591 991.023 115.864C989.508 116.136 988.008 116.379 986.523 116.591C985.038 116.803 983.75 116.985 982.659 117.136C980.205 117.47 978.008 118.015 976.068 118.773C974.129 119.53 972.598 120.591 971.477 121.955C970.356 123.288 969.795 125.015 969.795 127.136C969.795 130.167 970.902 132.455 973.114 134C975.326 135.545 978.144 136.318 981.568 136.318ZM1030.7 147V77.1818H1046.66V88.8182H1047.39C1048.66 84.7879 1050.84 81.6818 1053.93 79.5C1057.05 77.2879 1060.61 76.1818 1064.61 76.1818C1065.52 76.1818 1066.54 76.2273 1067.66 76.3182C1068.81 76.3788 1069.77 76.4848 1070.52 76.6364V91.7727C1069.83 91.5303 1068.72 91.3182 1067.2 91.1364C1065.72 90.9242 1064.28 90.8182 1062.89 90.8182C1059.89 90.8182 1057.19 91.4697 1054.8 92.7727C1052.43 94.0455 1050.57 95.8182 1049.2 98.0909C1047.84 100.364 1047.16 102.985 1047.16 105.955V147H1030.7ZM1109.49 148.364C1102.49 148.364 1096.44 146.909 1091.35 144C1086.29 141.061 1082.4 136.909 1079.67 131.545C1076.94 126.152 1075.58 119.803 1075.58 112.5C1075.58 105.318 1076.94 99.0152 1079.67 93.5909C1082.43 88.1364 1086.28 83.8939 1091.22 80.8636C1096.16 77.803 1101.96 76.2727 1108.62 76.2727C1112.93 76.2727 1116.99 76.9697 1120.81 78.3636C1124.66 79.7273 1128.05 81.8485 1130.99 84.7273C1133.96 87.6061 1136.29 91.2727 1137.99 95.7273C1139.69 100.152 1140.53 105.424 1140.53 111.545V116.591H1083.31V105.5H1124.76C1124.73 102.348 1124.05 99.5455 1122.72 97.0909C1121.38 94.6061 1119.52 92.6515 1117.12 91.2273C1114.76 89.803 1112 89.0909 1108.85 89.0909C1105.49 89.0909 1102.53 89.9091 1099.99 91.5455C1097.44 93.1515 1095.46 95.2727 1094.03 97.9091C1092.64 100.515 1091.93 103.379 1091.9 106.5V116.182C1091.9 120.242 1092.64 123.727 1094.12 126.636C1095.61 129.515 1097.69 131.727 1100.35 133.273C1103.02 134.788 1106.14 135.545 1109.72 135.545C1112.11 135.545 1114.28 135.212 1116.22 134.545C1118.16 133.848 1119.84 132.833 1121.26 131.5C1122.69 130.167 1123.76 128.515 1124.49 126.545L1139.85 128.273C1138.88 132.333 1137.03 135.879 1134.31 138.909C1131.61 141.909 1128.16 144.242 1123.94 145.909C1119.73 147.545 1114.91 148.364 1109.49 148.364Z" fill="#3594D0"/>
</svg>
